<?xml version="1.0" encoding="utf-8"?>
<!-- Generator: Adobe Illustrator 19.1.0, SVG Export Plug-In . SVG Version: 6.00 Build 0)  -->
<svg version="1.1" id="Layer_1" xmlns="http://www.w3.org/2000/svg" xmlns:xlink="http://www.w3.org/1999/xlink" x="0px" y="0px"
	 viewBox="0 0 554 71" style="enable-background:new 0 0 554 71;" xml:space="preserve">
<style type="text/css">
	.st0{fill-rule:evenodd;clip-rule:evenodd;}
</style>
<path class="st0" d="M32.5,40.5l8.2-19.6H53v0.8h-1c-0.9,0-1.6,0.2-2.1,0.5c-0.4,0.2-0.7,0.6-0.9,1c-0.2,0.4-0.2,1.3-0.2,2.7v19.6
	c0,1.5,0.1,2.5,0.2,2.9c0.2,0.4,0.5,0.7,1,1c0.5,0.3,1.2,0.4,2,0.4h1v0.8H37.2v-0.8h1c0.9,0,1.6-0.2,2.1-0.5
	c0.4-0.2,0.7-0.6,0.9-1.1c0.2-0.3,0.2-1.3,0.2-2.8V23.5L29.9,50.7h-0.5l-11.8-27v21c0,1.5,0,2.4,0.1,2.7c0.2,0.7,0.6,1.3,1.3,1.8
	c0.6,0.5,1.7,0.7,3,0.7v0.8H11.7v-0.8H12c0.7,0,1.3-0.1,1.9-0.3c0.6-0.2,1-0.5,1.3-0.9c0.3-0.4,0.5-0.9,0.7-1.6c0-0.2,0-0.9,0-2.2
	V25.9c0-1.5-0.1-2.4-0.2-2.8c-0.2-0.4-0.5-0.7-1-1c-0.5-0.3-1.2-0.4-2-0.4h-1v-0.8H24L32.5,40.5L32.5,40.5z"/>
<path class="st0" d="M71.4,20.5c4.8-0.2,8.7,1.2,11.7,4.1c3,2.9,4.5,6.6,4.5,11.1c0,3.8-1.1,7.1-3.4,10c-3,3.8-7.2,5.7-12.6,5.7
	c-5.4,0-9.6-1.8-12.6-5.5c-2.3-2.9-3.5-6.3-3.5-10.2c0-4.4,1.5-8.1,4.6-11.1C63.2,21.7,66.9,20.3,71.4,20.5L71.4,20.5z M71.7,21.9
	c-2.8,0-4.9,1.4-6.3,4.2c-1.2,2.3-1.8,5.6-1.8,9.8c0,5.1,0.9,8.8,2.7,11.3c1.3,1.7,3,2.6,5.3,2.6c1.5,0,2.8-0.4,3.8-1.1
	c1.3-0.9,2.3-2.4,3-4.5c0.7-2.1,1.1-4.7,1.1-8c0-3.9-0.4-6.9-1.1-8.8c-0.7-2-1.7-3.3-2.8-4.1C74.5,22.3,73.2,21.9,71.7,21.9
	L71.7,21.9z"/>
<path class="st0" d="M90.3,20.9h15.6v0.8h-0.8c-1.2,0-2,0.1-2.4,0.4c-0.4,0.2-0.8,0.6-0.9,1c-0.2,0.4-0.3,1.5-0.3,3.2v14.6
	c0,2.7,0.2,4.4,0.6,5.3c0.4,0.9,1.1,1.6,2,2.2c0.9,0.6,2.1,0.9,3.5,0.9c1.6,0,3-0.4,4.2-1.1c1.2-0.7,2-1.7,2.6-3
	c0.6-1.3,0.9-3.5,0.9-6.7V26.2c0-1.3-0.1-2.3-0.4-2.9c-0.3-0.6-0.6-1-1.1-1.2c-0.7-0.3-1.6-0.5-2.8-0.5v-0.8h10.4v0.8h-0.6
	c-0.8,0-1.5,0.2-2.1,0.5c-0.6,0.3-1,0.8-1.2,1.5c-0.2,0.5-0.3,1.3-0.3,2.5v11.3c0,3.5-0.2,6-0.7,7.6c-0.5,1.6-1.6,3-3.4,4.3
	c-1.8,1.3-4.3,2-7.4,2c-2.6,0-4.6-0.3-6.1-1c-1.9-0.9-3.3-2.1-4.1-3.6c-0.8-1.5-1.2-3.4-1.2-5.9V26.2c0-1.7-0.1-2.8-0.3-3.2
	c-0.2-0.4-0.5-0.8-1-1c-0.5-0.3-1.3-0.4-2.6-0.4V20.9L90.3,20.9z"/>
<path class="st0" d="M133.5,20.9l14.9,18.5V26.5c0-1.8-0.3-3-0.8-3.6c-0.7-0.8-1.9-1.3-3.6-1.2v-0.8h10v0.8
	c-1.3,0.2-2.1,0.4-2.6,0.6c-0.4,0.3-0.8,0.7-1,1.3c-0.2,0.6-0.4,1.6-0.4,3v24.8h-0.8l-20.4-24.8v18.9c0,1.7,0.4,2.9,1.2,3.5
	c0.8,0.6,1.7,0.9,2.7,0.9h0.7v0.8h-10.7v-0.8c1.7,0,2.8-0.4,3.5-1c0.7-0.7,1-1.8,1-3.4v-21l-0.6-0.8c-0.6-0.8-1.2-1.3-1.7-1.6
	c-0.5-0.2-1.2-0.4-2.1-0.4v-0.8H133.5L133.5,20.9z"/>
<path class="st0" d="M183.8,20.9v8.1H183c-0.5-1.9-1-3.2-1.6-4c-0.6-0.8-1.4-1.5-2.4-1.9c-0.6-0.3-1.5-0.4-3-0.4h-2.2v23
	c0,1.5,0.1,2.5,0.3,2.9c0.2,0.4,0.5,0.7,1,1c0.5,0.3,1.2,0.4,2,0.4h1v0.8h-15.8v-0.8h1c0.9,0,1.6-0.2,2.1-0.5
	c0.4-0.2,0.7-0.6,0.9-1.1c0.2-0.3,0.3-1.3,0.3-2.8v-23h-2.2c-2,0-3.5,0.4-4.4,1.3c-1.3,1.2-2.1,2.9-2.4,5.1h-0.8v-8.1H183.8
	L183.8,20.9z"/>
<path class="st0" d="M224.8,40.2l-1.1,10.5h-26.8v-0.8h1c0.9,0,1.6-0.2,2.1-0.5c0.4-0.2,0.7-0.6,0.9-1.1c0.2-0.3,0.2-1.3,0.2-2.8V26
	c0-1.5-0.1-2.5-0.2-2.9c-0.2-0.4-0.5-0.7-1-1c-0.5-0.3-1.2-0.4-2-0.4h-1v-0.8H213v0.8h-1.3c-0.9,0-1.6,0.2-2.1,0.5
	c-0.4,0.2-0.7,0.6-0.9,1.1c-0.2,0.4-0.2,1.3-0.2,2.8v19c0,1.5,0.1,2.5,0.3,2.9c0.2,0.4,0.5,0.7,1,0.9c0.4,0.1,1.3,0.2,2.7,0.2h2.5
	c1.6,0,2.9-0.3,4-0.8c1.1-0.6,2-1.4,2.8-2.6c0.8-1.2,1.5-3,2.2-5.3H224.8L224.8,40.2z"/>
<path class="st0" d="M245.4,42.2h-10.7l-1.3,2.9c-0.4,1-0.6,1.8-0.6,2.4c0,0.8,0.3,1.5,1,1.8c0.4,0.2,1.4,0.4,3,0.5v0.8h-10v-0.8
	c1.1-0.2,2-0.6,2.7-1.3c0.7-0.7,1.6-2.2,2.6-4.5l10.8-23.8h0.4l10.9,24.4c1,2.3,1.9,3.8,2.6,4.4c0.5,0.5,1.2,0.7,2.1,0.8v0.8h-14.6
	v-0.8h0.6c1.2,0,2-0.2,2.5-0.5c0.3-0.2,0.5-0.6,0.5-1c0-0.3,0-0.5-0.1-0.8c0-0.1-0.3-0.7-0.7-1.6L245.4,42.2L245.4,42.2z
	 M244.6,40.6l-4.5-10.3l-4.6,10.3H244.6L244.6,40.6z"/>
<path class="st0" d="M270.7,20.9l14.9,18.5V26.5c0-1.8-0.3-3-0.8-3.6c-0.7-0.8-1.9-1.3-3.6-1.2v-0.8h10v0.8
	c-1.3,0.2-2.1,0.4-2.6,0.6c-0.4,0.3-0.8,0.7-1,1.3c-0.2,0.6-0.4,1.6-0.4,3v24.8h-0.8l-20.4-24.8v18.9c0,1.7,0.4,2.9,1.2,3.5
	c0.8,0.6,1.7,0.9,2.7,0.9h0.7v0.8H260v-0.8c1.7,0,2.8-0.4,3.5-1c0.7-0.7,1-1.8,1-3.4v-21l-0.6-0.8c-0.6-0.8-1.2-1.3-1.7-1.6
	c-0.5-0.2-1.2-0.4-2.1-0.4v-0.8H270.7L270.7,20.9z"/>
<path class="st0" d="M323.7,20.2v10.5h-0.8c-1-2.9-2.5-5.1-4.5-6.5c-2-1.5-4.2-2.2-6.5-2.2c-2.3,0-4.1,0.6-5.6,1.9
	c-1.5,1.3-2.6,3-3.2,5.2c-0.6,2.2-0.9,4.5-0.9,6.9c0,2.9,0.3,5.4,1,7.5c0.7,2.2,1.8,3.7,3.3,4.7c1.5,1,3.3,1.5,5.4,1.5
	c0.7,0,1.5-0.1,2.2-0.2c0.8-0.2,1.5-0.4,2.4-0.7v-6.2c0-1.2-0.1-1.9-0.2-2.3c-0.2-0.3-0.5-0.7-1-0.9c-0.5-0.3-1.1-0.4-1.9-0.4h-0.8
	v-0.8h14.7V39c-1.1,0.1-1.9,0.2-2.3,0.5c-0.4,0.2-0.8,0.6-1,1.1c-0.1,0.3-0.2,1-0.2,2v6.2c-1.9,0.8-3.9,1.5-6,1.9
	c-2.1,0.4-4.2,0.7-6.5,0.7c-2.9,0-5.2-0.4-7.1-1.2c-1.9-0.8-3.6-1.8-5-3c-1.4-1.3-2.6-2.7-3.4-4.2c-1-2-1.6-4.3-1.6-6.8
	c0-4.5,1.6-8.3,4.8-11.4c3.2-3.1,7.2-4.6,12-4.6c1.5,0,2.8,0.1,4,0.3c0.7,0.1,1.7,0.5,3.2,1c1.5,0.5,2.3,0.8,2.6,0.8
	c0.4,0,0.8-0.1,1.2-0.5c0.4-0.3,0.7-0.9,1-1.7H323.7L323.7,20.2z"/>
<path class="st0" d="M344.4,49.9v0.8h-15.8v-0.8h1c0.9,0,1.6-0.2,2.1-0.5c0.4-0.2,0.7-0.6,0.9-1.1c0.2-0.3,0.3-1.3,0.3-2.8V26
	c0-1.5-0.1-2.5-0.3-2.9c-0.2-0.4-0.5-0.7-1-1c-0.5-0.3-1.2-0.4-2-0.4h-1v-0.8h15.8v0.8h-1c-0.9,0-1.6,0.2-2.1,0.5
	c-0.4,0.2-0.7,0.6-0.9,1.1c-0.2,0.4-0.2,1.3-0.2,2.8v19.6c0,1.5,0.1,2.5,0.2,2.9c0.2,0.4,0.5,0.7,1,1c0.5,0.3,1.2,0.4,2,0.4H344.4
	L344.4,49.9z"/>
<path class="st0" d="M388.3,20.2v10.5h-0.8c-1-2.9-2.5-5.1-4.5-6.5c-2-1.5-4.2-2.2-6.5-2.2c-2.3,0-4.1,0.6-5.6,1.9
	c-1.5,1.3-2.6,3-3.2,5.2c-0.6,2.2-0.9,4.5-0.9,6.9c0,2.9,0.3,5.4,1,7.5c0.7,2.2,1.8,3.7,3.3,4.7c1.5,1,3.3,1.5,5.4,1.5
	c0.7,0,1.5-0.1,2.2-0.2c0.8-0.2,1.6-0.4,2.4-0.7v-6.2c0-1.2-0.1-1.9-0.2-2.3c-0.2-0.3-0.5-0.7-1-0.9c-0.5-0.3-1.1-0.4-1.9-0.4h-0.8
	v-0.8h14.7V39c-1.1,0.1-1.9,0.2-2.3,0.5c-0.4,0.2-0.8,0.6-1,1.1c-0.1,0.3-0.2,1-0.2,2v6.2c-1.9,0.8-3.9,1.5-6,1.9
	c-2.1,0.4-4.2,0.7-6.5,0.7c-2.9,0-5.2-0.4-7.1-1.2c-1.9-0.8-3.6-1.8-5-3c-1.4-1.3-2.6-2.7-3.4-4.2c-1-2-1.6-4.3-1.6-6.8
	c0-4.5,1.6-8.3,4.8-11.4c3.2-3.1,7.2-4.6,12-4.6c1.5,0,2.8,0.1,4,0.3c0.7,0.1,1.7,0.5,3.2,1c1.5,0.5,2.3,0.8,2.6,0.8
	c0.4,0,0.8-0.1,1.2-0.5c0.4-0.3,0.7-0.9,1-1.7H388.3L388.3,20.2z"/>
<path class="st0" d="M404.8,36.3v9.2c0,1.5,0.1,2.5,0.2,2.9c0.2,0.4,0.5,0.7,1,1c0.5,0.3,1.2,0.4,2,0.4h1v0.8h-15.8v-0.8h1
	c0.9,0,1.6-0.2,2.1-0.5c0.4-0.2,0.7-0.6,0.9-1.1c0.2-0.3,0.3-1.3,0.3-2.8V26c0-1.5-0.1-2.5-0.3-2.9c-0.2-0.4-0.5-0.7-1-1
	c-0.5-0.3-1.2-0.4-2-0.4h-1v-0.8H409v0.8h-1c-0.9,0-1.6,0.2-2.1,0.5c-0.4,0.2-0.7,0.6-0.9,1.1c-0.2,0.4-0.2,1.3-0.2,2.8v8.4h10.7V26
	c0-1.5-0.1-2.5-0.2-2.9c-0.2-0.4-0.5-0.7-1-1c-0.5-0.3-1.2-0.4-2-0.4h-1v-0.8h15.8v0.8h-1c-0.9,0-1.6,0.2-2.1,0.5
	c-0.4,0.2-0.7,0.6-0.9,1.1c-0.2,0.4-0.2,1.3-0.2,2.8v19.6c0,1.5,0.1,2.5,0.2,2.9c0.2,0.4,0.5,0.7,1,1c0.5,0.3,1.2,0.4,2,0.4h1v0.8
	h-15.8v-0.8h1c0.9,0,1.6-0.2,2.1-0.5c0.4-0.2,0.7-0.6,0.9-1.1c0.2-0.3,0.2-1.3,0.2-2.8v-9.2H404.8L404.8,36.3z"/>
<path class="st0" d="M444.5,49.9v0.8h-15.8v-0.8h1c0.9,0,1.6-0.2,2.1-0.5c0.4-0.2,0.7-0.6,0.9-1.1c0.2-0.3,0.2-1.3,0.2-2.8V26
	c0-1.5-0.1-2.5-0.2-2.9c-0.2-0.4-0.5-0.7-1-1c-0.5-0.3-1.2-0.4-2-0.4h-1v-0.8h15.8v0.8h-1c-0.9,0-1.6,0.2-2.1,0.5
	c-0.4,0.2-0.7,0.6-0.9,1.1c-0.2,0.4-0.2,1.3-0.2,2.8v19.6c0,1.5,0.1,2.5,0.3,2.9c0.2,0.4,0.5,0.7,1,1c0.5,0.3,1.2,0.4,2,0.4H444.5
	L444.5,49.9z"/>
<path class="st0" d="M457.6,37.1v8.4c0,1.6,0.1,2.6,0.3,3c0.2,0.4,0.6,0.8,1.1,1c0.5,0.2,1.5,0.4,2.8,0.4v0.8h-15.5v-0.8
	c1.4,0,2.3-0.1,2.8-0.4c0.5-0.3,0.8-0.6,1-1c0.2-0.4,0.3-1.4,0.3-3V26.1c0-1.6-0.1-2.6-0.3-3c-0.2-0.4-0.6-0.8-1.1-1
	c-0.5-0.3-1.4-0.4-2.8-0.4v-0.8h14c3.7,0,6.3,0.3,8,0.8c1.7,0.5,3.1,1.4,4.1,2.8c1.1,1.3,1.6,2.9,1.6,4.7c0,2.2-0.8,4-2.4,5.5
	c-1,0.9-2.5,1.6-4.3,2l7.3,10.1c0.9,1.3,1.6,2.1,2,2.4c0.6,0.5,1.3,0.7,2.1,0.8v0.8h-9.5l-9.7-13.6H457.6L457.6,37.1z M457.6,22.5
	v13h1.3c2.1,0,3.6-0.2,4.6-0.6c1-0.4,1.8-1.1,2.4-2c0.6-1,0.9-2.2,0.9-3.8c0-2.3-0.5-3.9-1.6-5c-1.1-1.1-2.8-1.6-5.2-1.6H457.6
	L457.6,22.5z"/>
<path class="st0" d="M497.4,42.2h-10.7l-1.3,2.9c-0.4,1-0.6,1.8-0.6,2.4c0,0.8,0.3,1.5,1,1.8c0.4,0.2,1.4,0.4,3,0.5v0.8h-10v-0.8
	c1.1-0.2,2-0.6,2.7-1.3c0.7-0.7,1.6-2.2,2.6-4.5l10.8-23.8h0.4l10.9,24.4c1,2.3,1.9,3.8,2.6,4.4c0.5,0.5,1.2,0.7,2.1,0.8v0.8h-14.6
	v-0.8h0.6c1.2,0,2-0.2,2.5-0.5c0.3-0.2,0.5-0.6,0.5-1c0-0.3,0-0.5-0.1-0.8c0-0.1-0.2-0.7-0.7-1.6L497.4,42.2L497.4,42.2z
	 M496.6,40.6l-4.5-10.3l-4.6,10.3H496.6L496.6,40.6z"/>
<path class="st0" d="M522.7,20.9l14.9,18.5V26.5c0-1.8-0.3-3-0.8-3.6c-0.7-0.8-1.9-1.3-3.6-1.2v-0.8h10v0.8
	c-1.3,0.2-2.1,0.4-2.6,0.6c-0.4,0.3-0.8,0.7-1,1.3c-0.2,0.6-0.4,1.6-0.4,3v24.8h-0.8l-20.4-24.8v18.9c0,1.7,0.4,2.9,1.2,3.5
	c0.8,0.6,1.7,0.9,2.7,0.9h0.7v0.8H512v-0.8c1.7,0,2.8-0.4,3.5-1c0.7-0.7,1-1.8,1-3.4v-21l-0.6-0.8c-0.6-0.8-1.2-1.3-1.7-1.6
	c-0.5-0.2-1.2-0.4-2.1-0.4v-0.8H522.7L522.7,20.9z"/>
<g>
	<path d="M553.9,65.6H0v-2.2h553.9V65.6z M553.9,8.4H0V6.2h553.9V8.4z"/>
</g>
</svg>
